<?xml version="1.0" encoding="utf-8"?>
<!-- Generator: Adobe Illustrator 21.1.0, SVG Export Plug-In . SVG Version: 6.00 Build 0)  -->
<svg version="1.1" id="Layer_1" xmlns="http://www.w3.org/2000/svg" xmlns:xlink="http://www.w3.org/1999/xlink" x="0px" y="0px"
	 viewBox="0 0 277 241" style="enable-background:new 0 0 277 241;" xml:space="preserve">
<style type="text/css">
	.st0{fill:#FF5F00;}
	.st1{fill:#2B2B2B;}
</style>
<g id="TAUpeo.tif_1_">
	<g>
		<path class="st0" d="M4.4,155.2c6.6,15,28.3,27.3,45.8,26.8c-17.2-18.9-11.2-38.1-1-57.2c3.7-7,8.3-13.6,13.5-19.7
			c29-33.4,65-55.4,108-65.7c8.2-2,8.9-3.9,3.9-11.1c-4.9-7.2-12.9-9.6-22-9.9c-5-0.2-9.9,0.5-14.8,1.6C88.1,30.9,48.4,58.1,17,98.5
			c-5.5,7-8.7,15.2-12,23.3c-3.1,7.9-4.4,16.4-3.1,24.8C2.5,149.5,3.2,152.5,4.4,155.2z"/>
		<path class="st0" d="M230.9,13.5c22.4,8.8,31.8,26.4,26.6,49.9c-5.1,23.5-19.2,40.4-39.1,52.9c-24.9,15.6-52.7,22.5-81.3,26.6
			c-11,1.6-22,4.6-33.2,1.5c-7.4-2.1-14.7-4.7-18.6-12.3c-2.1-4.2-1.8-6.7,3.8-7.5c19.1-2.9,38.3-5,57.1-10
			c28-7.5,51.9-20.8,67.4-46.5c11.3-18.7,15.7-37.6,0.2-56.5c-0.5-0.6-0.2-1.8-0.2-2.7"/>
		<path class="st0" d="M26.6,206.8c9,1.6,17.9,3.5,27,4.7c68.9,9.6,133.1-3.4,192.5-39.7c3.1-1.9,5.3-2.4,8.4,0.3
			c6.3,5.6,13.1,10.5,21.1,14C210.7,228.5,106.2,254,26.6,206.8z"/>
	</g>
</g>
</svg>
