<?xml version="1.0" encoding="utf-8"?>
<!-- Generator: Adobe Illustrator 21.1.0, SVG Export Plug-In . SVG Version: 6.00 Build 0)  -->
<svg version="1.1" id="Layer_1" xmlns="http://www.w3.org/2000/svg" xmlns:xlink="http://www.w3.org/1999/xlink" x="0px" y="0px"
	 viewBox="0 0 699 241" style="enable-background:new 0 0 699 241;" xml:space="preserve">
<style type="text/css">
	.st0{fill:#FF5F00;}
	.st1{fill:#2B2B2B;}
</style>
<g id="TAUpeo.tif_10_">
	<g>
		<path class="st0" d="M5.8,155.2c6.6,15,28.3,27.3,45.8,26.8c-17.2-18.9-11.2-38.1-1-57.2c3.7-7,8.3-13.6,13.5-19.7
			c29-33.4,65-55.4,108-65.7c8.2-2,8.9-3.9,3.9-11.1c-4.9-7.2-12.9-9.6-22-9.9c-5-0.2-9.9,0.5-14.8,1.6
			C89.4,30.9,49.7,58.1,18.4,98.5c-5.5,7-8.7,15.2-12,23.3c-3.1,7.9-4.4,16.4-3.1,24.8C3.8,149.5,4.5,152.5,5.8,155.2z"/>
		<path class="st0" d="M232.2,13.5c22.4,8.8,31.8,26.4,26.6,49.9c-5.1,23.5-19.2,40.4-39.1,52.9c-24.9,15.6-52.7,22.5-81.3,26.6
			c-11,1.6-22,4.6-33.2,1.5c-7.4-2.1-14.7-4.7-18.6-12.3c-2.1-4.2-1.8-6.7,3.8-7.5c19.1-2.9,38.3-5,57.1-10
			c28-7.5,51.9-20.8,67.4-46.5c11.3-18.7,15.7-37.6,0.2-56.5c-0.5-0.6-0.2-1.8-0.2-2.7"/>
		<path class="st0" d="M27.9,206.8c9,1.6,17.9,3.5,27,4.7c68.9,9.6,133.1-3.4,192.5-39.7c3.1-1.9,5.3-2.4,8.4,0.3
			c6.3,5.6,13.1,10.5,21.1,14C212,228.5,107.6,254,27.9,206.8z"/>
	</g>
</g>
<g>
	<path d="M351.3,83.1c0,6.5,3.4,9.8,10.1,9.8c2.3,0,4.1-0.4,5.5-1.3c1.4-0.8,2.3-2,2.5-3.5l0.1-0.2h9.5v0.5c-0.3,3.9-2,7.1-5.2,9.5
		c-3.2,2.4-7.5,3.6-12.8,3.6c-6,0-10.8-1.6-14.2-4.9c-3.4-3.3-5.1-8.1-5.1-14.5v-3.5c0-6.2,1.7-11,5-14.3s8-5,13.8-5
		c5.9,0,10.5,1.6,13.8,4.9c3.4,3.3,5,8,5,14.1v4.7h-28V83.1z M369.6,76.3v-0.5c0-2.7-0.8-4.8-2.5-6.2c-1.7-1.4-3.9-2.1-6.6-2.1
		c-5.8,0-8.8,2.9-9.2,8.8H369.6z"/>
	<path d="M396.7,59.8v4.4c1.5-1.6,3.2-2.8,5.3-3.6c2.1-0.8,4.3-1.3,6.7-1.3c4.7,0,8.4,1.4,11,4.2s3.9,6.7,3.9,11.7v25.5h-9.7V77.2
		c0-6.1-2.7-9.2-8.1-9.2c-2.8,0-5,0.8-6.5,2.4c-1.6,1.6-2.4,4-2.4,7.2v23.1h-9.7V59.8H396.7z"/>
	<path d="M430.4,88.1v-0.2h9.1v0.2c0,1.6,0.8,2.9,2.3,3.8c1.5,0.9,3.8,1.4,6.8,1.4c2.8,0,4.9-0.4,6.3-1.2s2.2-1.9,2.2-3.5
		c0-1.3-0.5-2.2-1.5-2.9c-1-0.7-2.7-1.2-5-1.4l-6-0.7c-4.6-0.6-8-1.8-10.2-3.7s-3.3-4.5-3.3-8c0-4,1.5-7.1,4.6-9.3
		c3-2.2,7.2-3.3,12.5-3.3c5.4,0,9.7,1.1,12.8,3.3c3.1,2.2,4.6,5.2,4.6,9.1v0.3h-9v-0.2c0-1.6-0.7-2.8-2.1-3.6
		c-1.4-0.8-3.5-1.3-6.4-1.3c-2.7,0-4.6,0.4-5.9,1.1c-1.3,0.8-1.9,1.8-1.9,3.3c0,1.2,0.4,2.1,1.3,2.8c0.9,0.7,2.4,1.1,4.5,1.3
		l6.5,0.8c4.7,0.5,8.2,1.8,10.4,3.7c2.3,2,3.4,4.6,3.4,8.1c0,4.2-1.6,7.5-4.9,9.7c-3.3,2.3-7.7,3.4-13.4,3.4c-5.6,0-9.9-1.1-13-3.4
		C431.9,95.5,430.4,92.3,430.4,88.1z"/>
	<path d="M508,74.6v26.1h-9.4v-3.8c-1.6,1.5-3.4,2.6-5.2,3.3s-4.1,1-6.7,1c-4.9,0-8.7-1.1-11.2-3.3c-2.5-2.2-3.8-5.3-3.8-9.3
		c0-3.9,1.3-6.8,4-8.9c2.7-2,6.6-3.1,11.7-3.1h10.9v-2.4c0-4.9-2.9-7.3-8.6-7.3c-2.6,0-4.5,0.5-5.7,1.4c-1.2,0.9-1.8,2.1-1.8,3.6
		v0.2h-9.3v-0.2c0-3.9,1.5-6.9,4.6-9.2c3.1-2.2,7.2-3.3,12.4-3.3c5.8,0,10.3,1.3,13.4,3.9C506.4,65.9,508,69.7,508,74.6z
		 M498.3,83.3h-9.1c-2.8,0-4.8,0.4-6.1,1.2c-1.3,0.8-2,2.1-2,3.8c0,1.6,0.6,2.9,1.9,3.8c1.3,0.9,3.2,1.3,5.8,1.3
		c6.3,0,9.5-2.5,9.5-7.6V83.3z"/>
	<path d="M526,59.8v4.4c1.4-1.6,3.1-2.8,5.2-3.6c2-0.8,4.2-1.3,6.4-1.3c2.5,0,4.7,0.5,6.8,1.4s3.7,2.3,5.1,4.1
		c3.5-3.7,7.8-5.5,13.1-5.5c5,0,8.9,1.4,11.7,4.2c2.8,2.8,4.2,6.7,4.2,11.7v25.5h-9.7V77.2c0-3-0.7-5.3-2-6.9
		c-1.3-1.5-3.3-2.3-5.9-2.3c-2.7,0-4.8,0.8-6.2,2.5c-1.5,1.6-2.2,4-2.2,7v23.3h-9.7V76.8c0-2.9-0.7-5.1-2-6.6
		c-1.3-1.5-3.3-2.2-5.8-2.2c-2.7,0-4.8,0.8-6.3,2.5c-1.5,1.6-2.2,4-2.2,7.1v23.1h-9.7V59.8H526z"/>
	<path d="M596.4,100.7h-9.5V46.5h9.7v18c1.3-1.7,2.9-3,4.9-3.9c1.9-0.9,4.1-1.4,6.5-1.4c4.9,0,8.7,1.6,11.6,4.7s4.3,7.7,4.3,13.6
		v5.1c0,3.9-0.7,7.3-2.1,10.2c-1.4,2.9-3.3,5-5.7,6.5c-2.4,1.5-5.2,2.2-8.2,2.2c-4.9,0-8.7-1.6-11.5-4.9V100.7z M614.2,82.2v-4.2
		c0-6.8-2.9-10.1-8.7-10.1c-2.8,0-5,0.9-6.5,2.6c-1.6,1.8-2.4,4.2-2.4,7.3v5.2c0,3,0.8,5.4,2.4,7.1c1.6,1.8,3.8,2.6,6.6,2.6
		c2.8,0,4.9-0.9,6.4-2.6C613.5,88.3,614.2,85.7,614.2,82.2z"/>
	<path d="M631.7,87.5v-41h9.7v40.4c0,2,0.4,3.4,1.2,4.2c0.8,0.8,2.3,1.2,4.4,1.2h3.7v8.4h-5.4c-4.6,0-8-1.1-10.3-3.3
		C632.8,95.3,631.7,92,631.7,87.5z"/>
	<path d="M664.6,83.1c0,6.5,3.4,9.8,10.1,9.8c2.3,0,4.1-0.4,5.5-1.3c1.4-0.8,2.3-2,2.5-3.5l0.1-0.2h9.5v0.5c-0.3,3.9-2,7.1-5.2,9.5
		c-3.2,2.4-7.5,3.6-12.8,3.6c-6,0-10.8-1.6-14.2-4.9c-3.4-3.3-5.1-8.1-5.1-14.5v-3.5c0-6.2,1.7-11,5-14.3s8-5,13.8-5
		c5.9,0,10.5,1.6,13.8,4.9c3.4,3.3,5,8,5,14.1v4.7h-28V83.1z M682.9,76.3v-0.5c0-2.7-0.8-4.8-2.5-6.2c-1.7-1.4-3.9-2.1-6.6-2.1
		c-5.8,0-8.8,2.9-9.2,8.8H682.9z"/>
</g>
<g>
	<path class="st1" d="M343,179.5h6.5c0.5,1.9,1.5,3.4,3.2,4.3c1.7,0.9,4.1,1.4,7.2,1.4c4,0,6.9-0.8,8.8-2.4c1.9-1.6,2.9-4.1,2.9-7.5
		V171c-1.3,2-3.1,3.5-5.3,4.5c-2.2,1-4.7,1.5-7.6,1.5c-5.1,0-9.1-1.6-12.1-4.8c-3-3.2-4.5-7.7-4.5-13.5v-3.1
		c0-5.9,1.5-10.5,4.5-13.7c3-3.2,7-4.8,12-4.8c2.8,0,5.4,0.5,7.7,1.6c2.3,1.1,4.1,2.6,5.4,4.4V138h6.6v36.8c0,5.1-1.6,9.1-4.8,11.9
		s-7.7,4.2-13.6,4.2c-5.1,0-9.2-1-12.1-2.9C344.9,186,343.3,183.2,343,179.5z M371.7,159v-3.7c0-3.7-1-6.7-3.1-8.9s-4.9-3.3-8.6-3.3
		c-3.6,0-6.3,1.1-8.2,3.3c-1.9,2.2-2.9,5.4-2.9,9.8v2.3c0,4.2,1,7.3,2.9,9.5c2,2.1,4.7,3.2,8.2,3.2c3.8,0,6.7-1,8.7-3.1
		C370.7,165.8,371.7,162.8,371.7,159z"/>
	<path class="st1" d="M395.5,138v5.7c1.4-2.1,3.1-3.7,5.3-4.7c2.2-1,4.7-1.5,7.5-1.5c1.2,0,2.2,0.1,3.2,0.2v6.4
		c-1.4-0.4-2.9-0.6-4.4-0.6c-3.5,0-6.2,1-8.4,3.1s-3.2,4.9-3.2,8.5v23.2h-6.7V138H395.5z"/>
	<path class="st1" d="M450.9,152v26.2h-6.5v-4.6c-2.8,3.4-7.1,5-13.1,5c-4.9,0-8.6-1-11.1-3.1c-2.5-2.1-3.8-5.1-3.8-9
		c0-3.8,1.3-6.7,3.9-8.7c2.6-2,6.4-3,11.5-3h12.5v-2.8c0-6.1-3.5-9.1-10.6-9.1c-3.1,0-5.4,0.6-7,1.7s-2.4,2.8-2.4,4.9v0.2h-6.5v-0.2
		c0-3.8,1.4-6.7,4.2-8.9c2.8-2.2,6.7-3.3,11.6-3.3c5.6,0,9.9,1.2,12.9,3.7C449.4,143.7,450.9,147.3,450.9,152z M444.2,163.1v-3.1
		h-11.4c-3.4,0-5.9,0.5-7.5,1.6s-2.4,2.7-2.4,5c0,2.3,0.8,4,2.4,5.1s4,1.6,7.3,1.6c4,0,6.9-0.8,8.8-2.5
		C443.2,169.1,444.2,166.5,444.2,163.1z M444.3,123.2l-10.9,10.1h-6.3l8.8-10.1H444.3z"/>
	<path class="st1" d="M471.8,134.9v3.1h10.1v5h-10.1v35.2h-6.7V143h-5.7v-5h5.7v-2.8c0-3.6,1-6.4,3.1-8.3c2-1.9,5-2.9,8.9-2.9h4.8
		v4.9h-3.7c-2.2,0-3.8,0.5-4.8,1.5C472.3,131.4,471.8,132.9,471.8,134.9z"/>
	<path class="st1" d="M497.1,124.1v7.2h-6.7v-7.2H497.1z M497.1,138v40.2h-6.7V138H497.1z"/>
	<path class="st1" d="M507,160.1v-4c0-6.1,1.6-10.8,4.9-14c3.2-3.2,7.8-4.8,13.5-4.8c5.3,0,9.4,1.3,12.4,3.9s4.5,6.2,4.5,10.7v0.4
		h-6.5v-0.4c0-2.7-0.9-4.8-2.7-6.4s-4.3-2.3-7.6-2.3c-7.9,0-11.8,4.3-11.8,13v3.7c0,8.7,3.9,13.1,11.8,13.1c3.3,0,5.8-0.8,7.6-2.3
		s2.7-3.6,2.7-6.3v-0.3h6.5v0.3c0,4.5-1.5,8-4.4,10.6c-3,2.6-7.1,3.9-12.4,3.9c-5.8,0-10.3-1.6-13.6-4.8
		C508.7,170.9,507,166.2,507,160.1z"/>
	<path class="st1" d="M550.5,160.1v-4c0-6.1,1.6-10.8,4.9-14s7.8-4.8,13.6-4.8c5.7,0,10.2,1.6,13.4,4.9c3.2,3.2,4.9,7.9,4.9,14v4
		c0,6.1-1.6,10.8-4.9,14c-3.2,3.2-7.7,4.8-13.4,4.8c-5.8,0-10.3-1.6-13.6-4.8C552.1,170.9,550.5,166.2,550.5,160.1z M580.6,156.2
		c0-8.7-3.9-13-11.7-13c-7.8,0-11.7,4.3-11.7,13v3.7c0,8.7,3.9,13.1,11.7,13.1c7.8,0,11.7-4.4,11.7-13.1V156.2z"/>
</g>
</svg>
